<svg version="1.1" id="Layer_1" xmlns="http://www.w3.org/2000/svg" xmlns:xlink="http://www.w3.org/1999/xlink" x="0px" y="0px"
	 width="100%" viewBox="0 0 1560 300" enable-background="new 0 0 1560 300" xml:space="preserve">
<path fill="#000000" opacity="1.000000" stroke="none" 
	d="
M1034.000000,301.000000 
	C689.333374,301.000000 345.166718,301.000000 1.000046,301.000000 
	C1.000031,201.000031 1.000031,101.000053 1.000015,1.000060 
	C520.999939,1.000040 1040.999878,1.000040 1561.000000,1.000020 
	C1561.000000,100.999939 1561.000000,200.999878 1561.000000,300.999908 
	C1385.500000,301.000000 1210.000000,301.000000 1034.000000,301.000000 
M1322.000000,164.500000 
	C1322.000000,123.850410 1321.777710,83.198822 1322.144165,42.552544 
	C1322.245850,31.293911 1311.663086,20.811575 1300.690918,20.871111 
	C1247.881348,21.157671 1195.068481,21.151289 1142.258667,20.876581 
	C1131.259766,20.819366 1120.856567,31.295923 1120.888306,42.102108 
	C1121.102417,115.070862 1121.105591,188.040878 1120.869141,261.009491 
	C1120.838867,270.348694 1130.231567,282.188690 1141.747681,282.126526 
	C1194.890503,281.839722 1248.035645,282.005768 1301.180054,281.995483 
	C1312.739624,281.993256 1321.994019,272.629181 1321.997070,260.959930 
	C1322.005249,229.139954 1322.000000,197.319977 1322.000000,164.500000 
M693.618896,280.120667 
	C696.420410,280.747101 699.220886,281.914215 702.023682,281.919952 
	C755.006287,282.028595 807.989746,281.868622 860.971497,282.109344 
	C871.739258,282.158295 882.139832,271.736115 882.108948,260.953979 
	C881.900269,187.978210 881.901855,115.001289 882.107361,42.025509 
	C882.137634,31.261728 871.737427,20.839289 860.950989,20.889046 
	C807.969238,21.133453 754.985535,21.082228 702.003113,20.935604 
	C690.407166,20.903513 680.892029,31.144411 680.916687,42.227600 
	C681.078369,114.870369 681.037842,187.513718 680.952515,260.156738 
	C680.941711,269.335968 685.210205,275.573273 693.618896,280.120667 
M21.000000,116.500000 
	C21.000006,164.806320 20.991350,213.112656 21.006592,261.418976 
	C21.010056,272.403351 30.420233,281.983673 41.274982,281.988708 
	C94.745125,282.013550 148.215286,282.012787 201.685440,281.989319 
	C212.548721,281.984558 221.990997,272.417572 221.993011,261.458527 
	C222.006470,188.166107 222.006210,114.873680 221.993408,41.581257 
	C221.991455,30.351446 212.547226,21.007116 201.225510,21.004812 
	C148.088501,20.993996 94.951485,20.994188 41.814476,21.004581 
	C30.260027,21.006842 21.007217,30.373421 21.002810,42.041000 
	C20.993557,66.527336 21.000002,91.013664 21.000000,116.500000 
M1539.970947,32.833157 
	C1535.541504,25.109938 1529.183472,20.935194 1519.974121,20.952349 
	C1467.315918,21.050446 1414.657349,20.996277 1361.998901,21.002897 
	C1350.369751,21.004360 1341.005371,30.287102 1341.004150,41.833290 
	C1340.996094,114.988564 1340.995361,188.143829 1341.005005,261.299103 
	C1341.006592,272.551636 1350.411743,281.991547 1361.631226,281.994263 
	C1414.789673,282.007141 1467.947998,282.004700 1521.106445,281.996307 
	C1532.684692,281.994476 1541.995728,272.661896 1541.996704,261.061462 
	C1542.003174,188.072830 1542.020752,115.084167 1541.921875,42.095676 
	C1541.917969,39.263805 1540.765137,36.433495 1539.970947,32.833157 
M1089.409058,22.836081 
	C1086.394897,22.224052 1083.381958,21.084631 1080.366577,21.078413 
	C1027.710815,20.969801 975.053772,21.163597 922.399414,20.867743 
	C911.312378,20.805447 900.816833,31.310104 900.859436,42.569603 
	C901.134094,115.220512 901.127808,187.873413 900.865112,260.524414 
	C900.824707,271.686432 911.309509,282.204437 922.493408,282.138214 
	C974.980957,281.827393 1027.473022,281.776428 1079.959351,282.172485 
	C1091.660278,282.260773 1102.215820,271.605072 1102.164062,260.071198 
	C1101.839600,187.753967 1101.962280,115.434532 1102.046753,43.115959 
	C1102.057617,33.889050 1097.950439,27.465998 1089.409058,22.836081 
M461.027527,264.884033 
	C464.651581,277.243561 473.925659,282.275421 486.095612,282.177124 
	C537.742920,281.759796 589.395630,282.003387 641.046326,281.997437 
	C652.604492,281.996094 661.994934,272.702759 661.996094,261.243896 
	C662.003723,188.099823 662.003357,114.955742 661.996460,41.811668 
	C661.995422,30.332157 652.624939,21.004438 641.101990,21.002970 
	C588.118347,20.996223 535.133972,21.142958 482.151642,20.882011 
	C471.270020,20.828419 460.860016,31.279058 460.890533,42.058846 
	C461.099945,116.035408 461.001892,190.012833 461.027527,264.884033 
M241.000000,70.500000 
	C241.000000,134.154358 240.993362,197.808716 241.006363,261.463074 
	C241.008606,272.395813 250.439331,281.984528 261.249664,281.989288 
	C314.739380,282.012817 368.229065,282.012238 421.718781,281.989746 
	C432.538666,281.985199 441.991333,272.409698 441.993286,261.494629 
	C442.006226,188.175400 442.006073,114.856171 441.993561,41.536945 
	C441.991669,30.381264 432.506042,21.006481 421.250427,21.004395 
	C368.093994,20.994539 314.937561,20.994610 261.781128,21.004259 
	C250.272629,21.006348 241.013382,30.384546 241.001831,42.005291 
	C240.992706,51.170185 241.000000,60.335098 241.000000,70.500000 
z"/>
<path fill="#2563EB" opacity="1.000000" stroke="none" 
	d="
M1322.000000,165.000000 
	C1322.000000,197.319977 1322.005249,229.139954 1321.997070,260.959930 
	C1321.994019,272.629181 1312.739624,281.993256 1301.180054,281.995483 
	C1248.035645,282.005768 1194.890503,281.839722 1141.747681,282.126526 
	C1130.231567,282.188690 1120.838867,270.348694 1120.869141,261.009491 
	C1121.105591,188.040878 1121.102417,115.070862 1120.888306,42.102108 
	C1120.856567,31.295923 1131.259766,20.819366 1142.258667,20.876581 
	C1195.068481,21.151289 1247.881348,21.157671 1300.690918,20.871111 
	C1311.663086,20.811575 1322.245850,31.293911 1322.144165,42.552544 
	C1321.777710,83.198822 1322.000000,123.850410 1322.000000,165.000000 
M1250.500000,276.000000 
	C1266.665161,276.000000 1282.839355,275.674408 1298.992432,276.114594 
	C1309.744629,276.407562 1316.141357,269.393188 1316.111572,259.237427 
	C1315.901489,187.411163 1316.000488,115.583984 1315.999512,43.757095 
	C1315.999390,32.550106 1310.534912,27.001390 1299.490479,27.000940 
	C1247.495117,26.998825 1195.499878,26.998852 1143.504517,27.000937 
	C1132.659058,27.001371 1127.002075,32.571251 1127.001587,43.262218 
	C1126.998657,115.422409 1126.998657,187.582611 1127.001587,259.742798 
	C1127.002075,270.431366 1132.660034,275.998322 1143.509521,275.999084 
	C1178.839722,276.001556 1214.169800,276.000000 1250.500000,276.000000 
z"/>
<path fill="#E5E7EB" opacity="1.000000" stroke="none" 
	d="
M693.228271,280.052582 
	C685.210205,275.573273 680.941711,269.335968 680.952515,260.156738 
	C681.037842,187.513718 681.078369,114.870369 680.916687,42.227600 
	C680.892029,31.144411 690.407166,20.903513 702.003113,20.935604 
	C754.985535,21.082228 807.969238,21.133453 860.950989,20.889046 
	C871.737427,20.839289 882.137634,31.261728 882.107361,42.025509 
	C881.901855,115.001289 881.900269,187.978210 882.108948,260.953979 
	C882.139832,271.736115 871.739258,282.158295 860.971497,282.109344 
	C807.989746,281.868622 755.006287,282.028595 702.023682,281.919952 
	C699.220886,281.914215 696.420410,280.747101 693.228271,280.052582 
M687.000000,126.500000 
	C687.000000,170.990372 686.998169,215.480728 687.001465,259.971100 
	C687.002197,270.269348 692.723572,275.997894 703.011047,275.998505 
	C755.333191,276.001740 807.655396,276.001678 859.977539,275.998566 
	C870.268799,275.997955 875.998230,270.270660 875.998596,259.982513 
	C876.001282,187.664612 876.001221,115.346718 875.998596,43.028824 
	C875.998230,32.730656 870.276367,27.002123 859.988831,27.001490 
	C807.666687,26.998260 755.344482,26.998320 703.022339,27.001436 
	C692.731201,27.002050 687.003052,32.729469 687.001465,43.017605 
	C686.997192,70.511734 687.000000,98.005867 687.000000,126.500000 
z"/>
<path fill="#2563EB" opacity="1.000000" stroke="none" 
	d="
M21.000000,116.000000 
	C21.000002,91.013664 20.993557,66.527336 21.002810,42.041000 
	C21.007217,30.373421 30.260027,21.006842 41.814476,21.004581 
	C94.951485,20.994188 148.088501,20.993996 201.225510,21.004812 
	C212.547226,21.007116 221.991455,30.351446 221.993408,41.581257 
	C222.006210,114.873680 222.006470,188.166107 221.993011,261.458527 
	C221.990997,272.417572 212.548721,281.984558 201.685440,281.989319 
	C148.215286,282.012787 94.745125,282.013550 41.274982,281.988708 
	C30.420233,281.983673 21.010056,272.403351 21.006592,261.418976 
	C20.991350,213.112656 21.000006,164.806320 21.000000,116.000000 
M189.495178,27.000000 
	C140.666138,27.000000 91.837082,26.996775 43.008038,27.002636 
	C32.847698,27.003855 27.005302,32.744850 27.004219,42.758793 
	C26.996367,115.252563 26.996367,187.746338 27.004211,260.240112 
	C27.005295,270.254761 32.847210,275.996277 43.006920,275.997375 
	C95.335754,276.003052 147.664581,276.003143 199.993423,275.997345 
	C210.336136,275.996185 215.995911,270.238831 215.998367,259.739777 
	C216.003647,237.241714 216.000000,214.743652 216.000000,192.245590 
	C216.000000,143.249802 215.787491,94.252426 216.153229,45.259369 
	C216.241837,33.390099 210.062424,25.860819 197.489258,26.970825 
	C195.174179,27.175213 192.825562,27.000000 189.495178,27.000000 
z"/>
<path fill="#FB5A36" opacity="1.000000" stroke="none" 
	d="
M1540.059326,33.217804 
	C1540.765137,36.433495 1541.917969,39.263805 1541.921875,42.095676 
	C1542.020752,115.084167 1542.003174,188.072830 1541.996704,261.061462 
	C1541.995728,272.661896 1532.684692,281.994476 1521.106445,281.996307 
	C1467.947998,282.004700 1414.789673,282.007141 1361.631226,281.994263 
	C1350.411743,281.991547 1341.006592,272.551636 1341.005005,261.299103 
	C1340.995361,188.143829 1340.996094,114.988564 1341.004150,41.833290 
	C1341.005371,30.287102 1350.369751,21.004360 1361.998901,21.002897 
	C1414.657349,20.996277 1467.315918,21.050446 1519.974121,20.952349 
	C1529.183472,20.935194 1535.541504,25.109938 1540.059326,33.217804 
M1491.500000,276.000000 
	C1501.161377,276.000000 1510.822754,276.017883 1520.484131,275.994965 
	C1530.129761,275.972076 1535.994873,270.041901 1535.995850,260.289215 
	C1536.003540,187.828445 1536.002563,115.367668 1535.997070,42.906898 
	C1535.996338,32.840557 1530.196045,27.005110 1520.180664,27.003628 
	C1467.709106,26.995867 1415.237427,26.995480 1362.765869,27.003977 
	C1352.771973,27.005596 1347.003418,32.852440 1347.002686,42.960304 
	C1346.997803,115.254501 1346.998535,187.548691 1347.001831,259.842896 
	C1347.002319,270.275421 1352.690308,275.996552 1363.068970,275.997833 
	C1405.546021,276.002991 1448.022949,276.000000 1491.500000,276.000000 
z"/>
<path fill="#22C55E" opacity="1.000000" stroke="none" 
	d="
M1089.786865,22.936455 
	C1097.950439,27.465998 1102.057617,33.889050 1102.046753,43.115959 
	C1101.962280,115.434532 1101.839600,187.753967 1102.164062,260.071198 
	C1102.215820,271.605072 1091.660278,282.260773 1079.959351,282.172485 
	C1027.473022,281.776428 974.980957,281.827393 922.493408,282.138214 
	C911.309509,282.204437 900.824707,271.686432 900.865112,260.524414 
	C901.127808,187.873413 901.134094,115.220512 900.859436,42.569603 
	C900.816833,31.310104 911.312378,20.805447 922.399414,20.867743 
	C975.053772,21.163597 1027.710815,20.969801 1080.366577,21.078413 
	C1083.381958,21.084631 1086.394897,22.224052 1089.786865,22.936455 
M907.000000,215.500000 
	C907.000000,230.159943 906.996887,244.819885 907.001099,259.479828 
	C907.004272,270.402313 912.523193,275.997284 923.314941,275.998169 
	C975.291199,276.002289 1027.267456,276.000916 1079.243652,275.999268 
	C1090.503784,275.998901 1095.998657,270.563995 1095.998901,259.421478 
	C1096.000854,187.454407 1096.000977,115.487350 1095.998901,43.520287 
	C1095.998535,32.597404 1090.477661,27.002756 1079.685303,27.001886 
	C1027.709106,26.997702 975.732849,26.999043 923.756592,27.000757 
	C912.496277,27.001129 907.001526,32.435730 907.001099,43.578228 
	C906.998840,100.552155 907.000000,157.526077 907.000000,215.500000 
z"/>
<path fill="#FACC15" opacity="1.000000" stroke="none" 
	d="
M461.015198,264.437012 
	C461.001892,190.012833 461.099945,116.035408 460.890533,42.058846 
	C460.860016,31.279058 471.270020,20.828419 482.151642,20.882011 
	C535.133972,21.142958 588.118347,20.996223 641.101990,21.002970 
	C652.624939,21.004438 661.995422,30.332157 661.996460,41.811668 
	C662.003357,114.955742 662.003723,188.099823 661.996094,261.243896 
	C661.994934,272.702759 652.604492,281.996094 641.046326,281.997437 
	C589.395630,282.003387 537.742920,281.759796 486.095612,282.177124 
	C473.925659,282.275421 464.651581,277.243561 461.015198,264.437012 
M611.500000,27.000000 
	C568.505005,27.000002 525.510010,26.992987 482.515045,27.005400 
	C472.888977,27.008179 467.005005,32.942352 467.004028,42.631805 
	C466.996643,115.123360 466.997803,187.614914 467.002472,260.106476 
	C467.003113,270.130432 472.812073,275.995300 482.753265,275.996643 
	C535.247131,276.003784 587.741028,276.003723 640.234924,275.996704 
	C650.184021,275.995392 655.996765,270.136139 655.997437,260.118286 
	C656.002197,187.626724 656.003235,115.135170 655.996033,42.643616 
	C655.995117,32.957085 650.107117,27.025145 640.496765,27.004381 
	C631.164551,26.984219 621.832275,27.000002 611.500000,27.000000 
z"/>
<path fill="#EC4899" opacity="1.000000" stroke="none" 
	d="
M241.000000,70.000000 
	C241.000000,60.335098 240.992706,51.170185 241.001831,42.005291 
	C241.013382,30.384546 250.272629,21.006348 261.781128,21.004259 
	C314.937561,20.994610 368.093994,20.994539 421.250427,21.004395 
	C432.506042,21.006481 441.991669,30.381264 441.993561,41.536945 
	C442.006073,114.856171 442.006226,188.175400 441.993286,261.494629 
	C441.991333,272.409698 432.538666,281.985199 421.718781,281.989746 
	C368.229065,282.012238 314.739380,282.012817 261.249664,281.989288 
	C250.439331,281.984528 241.008606,272.395813 241.006363,261.463074 
	C240.993362,197.808716 241.000000,134.154358 241.000000,70.000000 
M317.500000,27.000000 
	C299.173767,27.000004 280.847565,26.985958 262.521332,27.005741 
	C252.878830,27.016151 247.005188,32.948261 247.004166,42.675034 
	C246.996490,115.147499 246.997604,187.619965 247.002777,260.092438 
	C247.003510,270.146179 252.804886,275.994995 262.788605,275.996460 
	C315.268677,276.004028 367.748718,276.004150 420.228790,275.996338 
	C430.201080,275.994873 435.996613,270.137756 435.997314,260.075043 
	C436.002289,187.769180 436.001404,115.463303 435.998444,43.157436 
	C435.998016,32.738762 430.307220,27.003899 419.961456,27.002150 
	C386.140961,26.996426 352.320496,27.000000 317.500000,27.000000 
z"/>
<path fill="#000000" opacity="1.000000" stroke="none" 
	d="
M1250.000000,276.000000 
	C1214.169800,276.000000 1178.839722,276.001556 1143.509521,275.999084 
	C1132.660034,275.998322 1127.002075,270.431366 1127.001587,259.742798 
	C1126.998657,187.582611 1126.998657,115.422409 1127.001587,43.262218 
	C1127.002075,32.571251 1132.659058,27.001371 1143.504517,27.000937 
	C1195.499878,26.998852 1247.495117,26.998825 1299.490479,27.000940 
	C1310.534912,27.001390 1315.999390,32.550106 1315.999512,43.757095 
	C1316.000488,115.583984 1315.901489,187.411163 1316.111572,259.237427 
	C1316.141357,269.393188 1309.744629,276.407562 1298.992432,276.114594 
	C1282.839355,275.674408 1266.665161,276.000000 1250.000000,276.000000 
M1225.482910,82.000000 
	C1218.718384,82.000000 1211.953857,82.000000 1205.292236,82.000000 
	C1205.292236,127.989922 1205.292236,173.391129 1205.292236,218.704895 
	C1215.992432,218.704895 1226.398071,218.704895 1236.706787,218.704895 
	C1236.706787,173.007980 1236.706787,127.606758 1236.706787,82.000000 
	C1233.102539,82.000000 1229.789673,82.000000 1225.482910,82.000000 
z"/>
<path fill="#000000" opacity="1.000000" stroke="none" 
	d="
M687.000000,126.000000 
	C687.000000,98.005867 686.997192,70.511734 687.001465,43.017605 
	C687.003052,32.729469 692.731201,27.002050 703.022339,27.001436 
	C755.344482,26.998320 807.666687,26.998260 859.988831,27.001490 
	C870.276367,27.002123 875.998230,32.730656 875.998596,43.028824 
	C876.001221,115.346718 876.001282,187.664612 875.998596,259.982513 
	C875.998230,270.270660 870.268799,275.997955 859.977539,275.998566 
	C807.655396,276.001678 755.333191,276.001740 703.011047,275.998505 
	C692.723572,275.997894 687.002197,270.269348 687.001465,259.971100 
	C686.998169,215.480728 687.000000,170.990372 687.000000,126.000000 
M820.722107,190.035950 
	C810.765198,197.675842 799.109009,200.094055 787.386353,197.529633 
	C765.930969,192.836060 764.176331,167.621399 771.907288,154.760330 
	C779.596069,141.969345 790.219177,141.486465 804.106262,143.826035 
	C810.198303,144.852356 815.891724,148.245209 821.856079,150.598999 
	C821.856079,141.926529 821.856079,133.140656 821.856079,124.358955 
	C802.770996,117.505493 783.561707,116.155556 764.465149,123.123833 
	C751.800781,127.745018 742.389282,136.294662 737.848267,149.514374 
	C734.522461,159.196274 733.526978,168.868286 734.816589,179.184235 
	C736.921387,196.019989 744.869324,208.589127 759.956726,215.869461 
	C778.973328,225.045868 798.750305,223.808472 818.420471,217.756195 
	C819.617004,217.388046 820.807434,214.915527 820.890015,213.363068 
	C821.301758,205.619507 821.341980,197.856171 820.722107,190.035950 
z"/>
<path fill="#000000" opacity="1.000000" stroke="none" 
	d="
M189.993805,27.000000 
	C192.825562,27.000000 195.174179,27.175213 197.489258,26.970825 
	C210.062424,25.860819 216.241837,33.390099 216.153229,45.259369 
	C215.787491,94.252426 216.000000,143.249802 216.000000,192.245590 
	C216.000000,214.743652 216.003647,237.241714 215.998367,259.739777 
	C215.995911,270.238831 210.336136,275.996185 199.993423,275.997345 
	C147.664581,276.003143 95.335754,276.003052 43.006920,275.997375 
	C32.847210,275.996277 27.005295,270.254761 27.004211,260.240112 
	C26.996367,187.746338 26.996367,115.252563 27.004219,42.758793 
	C27.005302,32.744850 32.847698,27.003855 43.008038,27.002636 
	C91.837082,26.996775 140.666138,27.000000 189.993805,27.000000 
M126.563492,222.000000 
	C137.067993,222.345810 147.446152,221.953339 157.458603,218.090454 
	C159.906677,217.145981 161.143417,216.285782 161.068283,213.430664 
	C160.867630,205.806519 160.999969,198.173615 160.999969,190.008163 
	C152.003922,196.291260 142.391647,198.602203 131.831528,198.101425 
	C123.482529,197.705505 116.674568,194.211334 112.460342,187.616287 
	C106.164909,177.764297 105.761787,163.096054 113.296471,152.303482 
	C118.896866,144.281540 132.847076,140.231796 144.060303,143.631760 
	C149.888809,145.399002 155.466888,147.992157 161.551620,150.365753 
	C161.551620,141.686600 161.551620,132.987839 161.551620,124.231697 
	C142.726349,117.487350 123.500336,116.164574 104.419174,123.133904 
	C91.775490,127.751968 82.327576,136.304916 77.838425,149.540588 
	C74.613800,159.048004 72.504066,168.679199 75.047424,178.663895 
	C76.734947,185.288742 77.752670,192.455399 81.077866,198.221832 
	C90.807915,215.095291 106.823082,221.405594 126.563492,222.000000 
z"/>
<path fill="#000000" opacity="1.000000" stroke="none" 
	d="
M1491.000000,276.000000 
	C1448.022949,276.000000 1405.546021,276.002991 1363.068970,275.997833 
	C1352.690308,275.996552 1347.002319,270.275421 1347.001831,259.842896 
	C1346.998535,187.548691 1346.997803,115.254501 1347.002686,42.960304 
	C1347.003418,32.852440 1352.771973,27.005596 1362.765869,27.003977 
	C1415.237427,26.995480 1467.709106,26.995867 1520.180664,27.003628 
	C1530.196045,27.005110 1535.996338,32.840557 1535.997070,42.906898 
	C1536.002563,115.367668 1536.003540,187.828445 1535.995850,260.289215 
	C1535.994873,270.041901 1530.129761,275.972076 1520.484131,275.994965 
	C1510.822754,276.017883 1501.161377,276.000000 1491.000000,276.000000 
M1396.965332,151.640869 
	C1399.816284,158.435547 1402.599609,165.259476 1405.531616,172.018997 
	C1412.293945,187.609238 1419.089966,203.185242 1425.949829,218.732788 
	C1429.451172,226.668777 1421.743286,236.636688 1414.063477,236.143051 
	C1409.446045,235.846252 1404.737915,236.962952 1400.351807,237.415405 
	C1400.351807,244.446167 1400.351807,251.188141 1400.351807,257.999969 
	C1408.698608,257.999969 1416.734863,258.484100 1424.672974,257.810669 
	C1429.132690,257.432373 1433.753174,255.739517 1437.734253,253.589142 
	C1446.380371,248.918686 1450.495850,240.387451 1453.922607,231.757965 
	C1461.900513,211.667496 1469.527466,191.437653 1477.307373,171.268494 
	C1483.751221,154.563583 1490.210693,137.864777 1496.726074,121.000031 
	C1486.791382,121.000031 1477.125854,121.057648 1467.461792,120.962158 
	C1464.830566,120.936157 1463.617798,121.542061 1462.693970,124.449028 
	C1457.693481,140.186554 1452.283936,155.794235 1446.997437,171.440643 
	C1445.553467,175.714310 1444.048462,179.967346 1442.280396,185.069275 
	C1441.438965,183.633179 1441.161621,183.272476 1440.998901,182.865860 
	C1433.323364,163.680542 1425.716553,144.467194 1417.892212,125.342918 
	C1417.180664,123.604172 1415.123779,121.250526 1413.614624,121.192711 
	C1403.831909,120.817879 1394.027954,121.000526 1383.592651,121.000526 
	C1388.046021,131.351181 1392.273071,141.175583 1396.965332,151.640869 
z"/>
<path fill="#000000" opacity="1.000000" stroke="none" 
	d="
M907.000000,215.000000 
	C907.000000,157.526077 906.998840,100.552155 907.001099,43.578228 
	C907.001526,32.435730 912.496277,27.001129 923.756592,27.000757 
	C975.732849,26.999043 1027.709106,26.997702 1079.685303,27.001886 
	C1090.477661,27.002756 1095.998535,32.597404 1095.998901,43.520287 
	C1096.000977,115.487350 1096.000854,187.454407 1095.998901,259.421478 
	C1095.998657,270.563995 1090.503784,275.998901 1079.243652,275.999268 
	C1027.267456,276.000916 975.291199,276.002289 923.314941,275.998169 
	C912.523193,275.997284 907.004272,270.402313 907.001099,259.479828 
	C906.996887,244.819885 907.000000,230.159943 907.000000,215.000000 
M974.008301,164.514542 
	C972.471436,163.397095 970.934509,162.279663 969.204590,161.021881 
	C963.806885,168.255783 958.448669,175.436874 953.118469,182.580353 
	C965.316223,191.742783 977.343506,200.525223 989.085510,209.673752 
	C999.197693,217.552368 1008.116028,216.479385 1014.084412,206.712067 
	C1024.645264,189.428970 1035.579346,172.374344 1046.294556,155.184982 
	C1050.967651,147.688248 1055.674683,140.198547 1059.916870,132.459244 
	C1060.776611,130.890671 1060.416260,127.035385 1059.252441,126.244331 
	C1052.833252,121.881599 1045.990356,118.142113 1039.264160,114.172043 
	C1035.228760,120.617874 1031.305542,126.881042 1027.385620,133.146133 
	C1017.921997,148.271637 1008.421326,163.374237 999.032227,178.545898 
	C997.322876,181.308044 996.221802,181.449005 993.569031,179.256439 
	C987.470215,174.215759 980.910461,169.732712 974.008301,164.514542 
z"/>
<path fill="#000000" opacity="1.000000" stroke="none" 
	d="
M612.000000,27.000000 
	C621.832275,27.000002 631.164551,26.984219 640.496765,27.004381 
	C650.107117,27.025145 655.995117,32.957085 655.996033,42.643616 
	C656.003235,115.135170 656.002197,187.626724 655.997437,260.118286 
	C655.996765,270.136139 650.184021,275.995392 640.234924,275.996704 
	C587.741028,276.003723 535.247131,276.003784 482.753265,275.996643 
	C472.812073,275.995300 467.003113,270.130432 467.002472,260.106476 
	C466.997803,187.614914 466.996643,115.123360 467.004028,42.631805 
	C467.005005,32.942352 472.888977,27.008179 482.515045,27.005400 
	C525.510010,26.992987 568.505005,27.000002 612.000000,27.000000 
M518.452026,136.031281 
	C516.677490,138.534866 514.456787,140.835037 513.206543,143.577652 
	C508.075256,154.834183 506.469879,166.422699 507.773071,178.995499 
	C510.559082,205.873672 531.203552,220.085281 553.382385,221.841492 
	C572.357727,223.344009 591.143188,221.540710 608.755859,213.375488 
	C608.755859,205.344849 608.755859,197.258026 608.755859,189.157761 
	C608.020386,189.097961 607.485962,188.919540 607.040405,189.048401 
	C606.279419,189.268509 605.547363,189.633194 604.849304,190.020325 
	C592.735229,196.738571 579.911621,200.025040 565.906677,200.193069 
	C552.079285,200.358963 541.628845,192.614624 540.488892,178.805176 
	C564.931702,178.805176 589.346802,178.805176 614.406555,178.805176 
	C613.919434,171.875916 613.930054,165.261169 612.898315,158.813202 
	C610.975952,146.798691 605.593689,136.634186 595.763062,128.925476 
	C584.845886,120.364761 572.390015,118.646309 559.030090,118.885880 
	C543.327087,119.167480 529.587891,123.383659 518.452026,136.031281 
z"/>
<path fill="#000000" opacity="1.000000" stroke="none" 
	d="
M318.000000,27.000000 
	C352.320496,27.000000 386.140961,26.996426 419.961456,27.002150 
	C430.307220,27.003899 435.998016,32.738762 435.998444,43.157436 
	C436.001404,115.463303 436.002289,187.769180 435.997314,260.075043 
	C435.996613,270.137756 430.201080,275.994873 420.228790,275.996338 
	C367.748718,276.004150 315.268677,276.004028 262.788605,275.996460 
	C252.804886,275.994995 247.003510,270.146179 247.002777,260.092438 
	C246.997604,187.619965 246.996490,115.147499 247.004166,42.675034 
	C247.005188,32.948261 252.878830,27.016151 262.521332,27.005741 
	C280.847565,26.985958 299.173767,27.000004 318.000000,27.000000 
M381.516357,128.010925 
	C361.035278,111.586510 342.287354,117.412071 323.901733,133.325027 
	C323.901733,115.760391 323.901733,99.046204 323.901733,82.223526 
	C313.144226,82.223526 302.744720,82.223526 292.368652,82.223526 
	C292.368652,127.945618 292.368652,173.443176 292.368652,218.636200 
	C303.142303,218.636200 313.545959,218.636200 324.000000,218.636200 
	C324.000000,212.111694 323.893982,205.948593 324.022278,199.790390 
	C324.280640,187.391571 324.138367,174.952194 325.148254,162.610306 
	C326.160675,150.237808 334.469666,143.643188 346.804230,144.000046 
	C352.205261,144.156296 357.758698,149.231613 357.958374,154.643311 
	C358.421936,167.204681 358.752411,179.772659 358.970612,192.340836 
	C359.122925,201.112839 359.000000,209.889618 359.000000,218.778931 
	C370.184418,218.778931 380.917053,218.778931 390.998566,218.778931 
	C390.998566,195.362350 391.411255,172.159042 390.759003,148.985718 
	C390.550446,141.576279 387.729187,134.154724 381.516357,128.010925 
z"/>
<path fill="#FFFFFF" opacity="1.000000" stroke="none" 
	d="
M1225.979980,82.000000 
	C1229.789673,82.000000 1233.102539,82.000000 1236.706787,82.000000 
	C1236.706787,127.606758 1236.706787,173.007980 1236.706787,218.704895 
	C1226.398071,218.704895 1215.992432,218.704895 1205.292236,218.704895 
	C1205.292236,173.391129 1205.292236,127.989922 1205.292236,82.000000 
	C1211.953857,82.000000 1218.718384,82.000000 1225.979980,82.000000 
z"/>
<path fill="#FFFFFF" opacity="1.000000" stroke="none" 
	d="
M821.117554,190.067871 
	C821.341980,197.856171 821.301758,205.619507 820.890015,213.363068 
	C820.807434,214.915527 819.617004,217.388046 818.420471,217.756195 
	C798.750305,223.808472 778.973328,225.045868 759.956726,215.869461 
	C744.869324,208.589127 736.921387,196.019989 734.816589,179.184235 
	C733.526978,168.868286 734.522461,159.196274 737.848267,149.514374 
	C742.389282,136.294662 751.800781,127.745018 764.465149,123.123833 
	C783.561707,116.155556 802.770996,117.505493 821.856079,124.358955 
	C821.856079,133.140656 821.856079,141.926529 821.856079,150.598999 
	C815.891724,148.245209 810.198303,144.852356 804.106262,143.826035 
	C790.219177,141.486465 779.596069,141.969345 771.907288,154.760330 
	C764.176331,167.621399 765.930969,192.836060 787.386353,197.529633 
	C799.109009,200.094055 810.765198,197.675842 821.117554,190.067871 
z"/>
<path fill="#FFFFFF" opacity="1.000000" stroke="none" 
	d="
M126.075272,222.000000 
	C106.823082,221.405594 90.807915,215.095291 81.077866,198.221832 
	C77.752670,192.455399 76.734947,185.288742 75.047424,178.663895 
	C72.504066,168.679199 74.613800,159.048004 77.838425,149.540588 
	C82.327576,136.304916 91.775490,127.751968 104.419174,123.133904 
	C123.500336,116.164574 142.726349,117.487350 161.551620,124.231697 
	C161.551620,132.987839 161.551620,141.686600 161.551620,150.365753 
	C155.466888,147.992157 149.888809,145.399002 144.060303,143.631760 
	C132.847076,140.231796 118.896866,144.281540 113.296471,152.303482 
	C105.761787,163.096054 106.164909,177.764297 112.460342,187.616287 
	C116.674568,194.211334 123.482529,197.705505 131.831528,198.101425 
	C142.391647,198.602203 152.003922,196.291260 160.999969,190.008163 
	C160.999969,198.173615 160.867630,205.806519 161.068283,213.430664 
	C161.143417,216.285782 159.906677,217.145981 157.458603,218.090454 
	C147.446152,221.953339 137.067993,222.345810 126.075272,222.000000 
z"/>
<path fill="#FFFFFF" opacity="1.000000" stroke="none" 
	d="
M1396.732666,151.320435 
	C1392.273071,141.175583 1388.046021,131.351181 1383.592651,121.000526 
	C1394.027954,121.000526 1403.831909,120.817879 1413.614624,121.192711 
	C1415.123779,121.250526 1417.180664,123.604172 1417.892212,125.342918 
	C1425.716553,144.467194 1433.323364,163.680542 1440.998901,182.865860 
	C1441.161621,183.272476 1441.438965,183.633179 1442.280396,185.069275 
	C1444.048462,179.967346 1445.553467,175.714310 1446.997437,171.440643 
	C1452.283936,155.794235 1457.693481,140.186554 1462.693970,124.449028 
	C1463.617798,121.542061 1464.830566,120.936157 1467.461792,120.962158 
	C1477.125854,121.057648 1486.791382,121.000031 1496.726074,121.000031 
	C1490.210693,137.864777 1483.751221,154.563583 1477.307373,171.268494 
	C1469.527466,191.437653 1461.900513,211.667496 1453.922607,231.757965 
	C1450.495850,240.387451 1446.380371,248.918686 1437.734253,253.589142 
	C1433.753174,255.739517 1429.132690,257.432373 1424.672974,257.810669 
	C1416.734863,258.484100 1408.698608,257.999969 1400.351807,257.999969 
	C1400.351807,251.188141 1400.351807,244.446167 1400.351807,237.415405 
	C1404.737915,236.962952 1409.446045,235.846252 1414.063477,236.143051 
	C1421.743286,236.636688 1429.451172,226.668777 1425.949829,218.732788 
	C1419.089966,203.185242 1412.293945,187.609238 1405.531616,172.018997 
	C1402.599609,165.259476 1399.816284,158.435547 1396.732666,151.320435 
z"/>
<path fill="#FFFFFF" opacity="1.000000" stroke="none" 
	d="
M974.273010,164.768936 
	C980.910461,169.732712 987.470215,174.215759 993.569031,179.256439 
	C996.221802,181.449005 997.322876,181.308044 999.032227,178.545898 
	C1008.421326,163.374237 1017.921997,148.271637 1027.385620,133.146133 
	C1031.305542,126.881042 1035.228760,120.617874 1039.264160,114.172043 
	C1045.990356,118.142113 1052.833252,121.881599 1059.252441,126.244331 
	C1060.416260,127.035385 1060.776611,130.890671 1059.916870,132.459244 
	C1055.674683,140.198547 1050.967651,147.688248 1046.294556,155.184982 
	C1035.579346,172.374344 1024.645264,189.428970 1014.084412,206.712067 
	C1008.116028,216.479385 999.197693,217.552368 989.085510,209.673752 
	C977.343506,200.525223 965.316223,191.742783 953.118469,182.580353 
	C958.448669,175.436874 963.806885,168.255783 969.204590,161.021881 
	C970.934509,162.279663 972.471436,163.397095 974.273010,164.768936 
z"/>
<path fill="#FFFFFF" opacity="1.000000" stroke="none" 
	d="
M518.714783,135.783447 
	C529.587891,123.383659 543.327087,119.167480 559.030090,118.885880 
	C572.390015,118.646309 584.845886,120.364761 595.763062,128.925476 
	C605.593689,136.634186 610.975952,146.798691 612.898315,158.813202 
	C613.930054,165.261169 613.919434,171.875916 614.406555,178.805176 
	C589.346802,178.805176 564.931702,178.805176 540.488892,178.805176 
	C541.628845,192.614624 552.079285,200.358963 565.906677,200.193069 
	C579.911621,200.025040 592.735229,196.738571 604.849304,190.020325 
	C605.547363,189.633194 606.279419,189.268509 607.040405,189.048401 
	C607.485962,188.919540 608.020386,189.097961 608.755859,189.157761 
	C608.755859,197.258026 608.755859,205.344849 608.755859,213.375488 
	C591.143188,221.540710 572.357727,223.344009 553.382385,221.841492 
	C531.203552,220.085281 510.559082,205.873672 507.773071,178.995499 
	C506.469879,166.422699 508.075256,154.834183 513.206543,143.577652 
	C514.456787,140.835037 516.677490,138.534866 518.714783,135.783447 
M577.979004,149.766541 
	C573.575317,142.065643 564.203064,138.522858 555.114929,141.421036 
	C547.360229,143.893997 540.959351,151.347702 541.310791,159.838257 
	C554.419373,159.838257 567.535278,159.838257 581.048218,159.838257 
	C580.015808,156.618408 579.042419,153.582428 577.979004,149.766541 
z"/>
<path fill="#FFFFFF" opacity="1.000000" stroke="none" 
	d="
M381.768127,128.271393 
	C387.729187,134.154724 390.550446,141.576279 390.759003,148.985718 
	C391.411255,172.159042 390.998566,195.362350 390.998566,218.778931 
	C380.917053,218.778931 370.184418,218.778931 359.000000,218.778931 
	C359.000000,209.889618 359.122925,201.112839 358.970612,192.340836 
	C358.752411,179.772659 358.421936,167.204681 357.958374,154.643311 
	C357.758698,149.231613 352.205261,144.156296 346.804230,144.000046 
	C334.469666,143.643188 326.160675,150.237808 325.148254,162.610306 
	C324.138367,174.952194 324.280640,187.391571 324.022278,199.790390 
	C323.893982,205.948593 324.000000,212.111694 324.000000,218.636200 
	C313.545959,218.636200 303.142303,218.636200 292.368652,218.636200 
	C292.368652,173.443176 292.368652,127.945618 292.368652,82.223526 
	C302.744720,82.223526 313.144226,82.223526 323.901733,82.223526 
	C323.901733,99.046204 323.901733,115.760391 323.901733,133.325027 
	C342.287354,117.412071 361.035278,111.586510 381.768127,128.271393 
z"/>
<path fill="#000000" opacity="1.000000" stroke="none" 
	d="
M578.023987,150.156494 
	C579.042419,153.582428 580.015808,156.618408 581.048218,159.838257 
	C567.535278,159.838257 554.419373,159.838257 541.310791,159.838257 
	C540.959351,151.347702 547.360229,143.893997 555.114929,141.421036 
	C564.203064,138.522858 573.575317,142.065643 578.023987,150.156494 
z"/>
</svg>