<svg xmlns="http://www.w3.org/2000/svg" viewBox="0 0 1584 300">
<style>.t {font-family: Manrope, "Century Gothic", Arial, sans-serif; font-weight:800; fill:#ffffff;}</style>
<rect x="20" y="20" width="200" height="260" rx="24" ry="24" fill="none" stroke="#2563eb" stroke-width="8"/>
<text x="120.0" y="195.0" text-anchor="middle" font-size="180" class="t">c</text>
<rect x="244" y="20" width="200" height="260" rx="24" ry="24" fill="none" stroke="#ec4899" stroke-width="8"/>
<text x="344.0" y="195.0" text-anchor="middle" font-size="180" class="t">h</text>
<rect x="468" y="20" width="200" height="260" rx="24" ry="24" fill="none" stroke="#facc15" stroke-width="8"/>
<text x="568.0" y="195.0" text-anchor="middle" font-size="180" class="t">e</text>
<rect x="692" y="20" width="200" height="260" rx="24" ry="24" fill="none" stroke="#e5e7eb" stroke-width="8"/>
<text x="792.0" y="195.0" text-anchor="middle" font-size="180" class="t">c</text>
<rect x="916" y="20" width="200" height="260" rx="24" ry="24" fill="none" stroke="#22c55e" stroke-width="8"/>
<path d="M 986 190 L 1036 230 L 1086 150" fill="none" stroke="#ffffff" stroke-width="28" stroke-linecap="round" stroke-linejoin="round"/>
<path d="M 986 190 L 1036 230 L 1086 150" fill="none" stroke="#22c55e" stroke-width="22" stroke-linecap="round" stroke-linejoin="round"/>
<rect x="1140" y="20" width="200" height="260" rx="24" ry="24" fill="none" stroke="#2563eb" stroke-width="8"/>
<text x="1240.0" y="195.0" text-anchor="middle" font-size="180" class="t">l</text>
<rect x="1364" y="20" width="200" height="260" rx="24" ry="24" fill="none" stroke="#fb5a36" stroke-width="8"/>
<text x="1464.0" y="195.0" text-anchor="middle" font-size="180" class="t">y</text>
</svg>