<svg width="600" height="250" viewBox="0 0 600 250" xmlns="http://www.w3.org/2000/svg">
  <g transform="translate(40, 50)"><path d="M 0 60 A 95 30 0 0 0 190 60" fill="none" stroke="#BDC3C7" stroke-width="4" opacity="0.3"/><rect x="0" y="10" width="24" height="110" rx="12" fill="#1B2624"/><rect x="34" y="30" width="24" height="90" rx="12" fill="#8B2E3E"/><rect x="68" y="15" width="24" height="105" rx="12" fill="#D9868C"/><rect x="102" y="25" width="24" height="95" rx="12" fill="#5D8AA8"/><rect x="136" y="10" width="24" height="110" rx="12" fill="#87B0D6"/><rect x="170" y="20" width="24" height="100" rx="12" fill="#9AC297"/><path d="M 0 60 A 95 30 0 0 1 190 60" fill="none" stroke="#BDC3C7" stroke-width="4" opacity="0.4"/><circle cx="12" cy="40" r="4" fill="#BDC3C7" opacity="0.7"/><circle cx="46" cy="75" r="4" fill="#BDC3C7" opacity="0.7"/><circle cx="114" cy="55" r="4" fill="#BDC3C7" opacity="0.7"/><circle cx="182" cy="70" r="4" fill="#BDC3C7" opacity="0.7"/><polyline points="12,40 25,40 25,75 46,75" stroke="#BDC3C7" stroke-width="2" fill="none" stroke-linecap="round" opacity="0.4"/><polyline points="114,55 140,55 140,70 182,70" stroke="#BDC3C7" stroke-width="2" fill="none" stroke-linecap="round" opacity="0.4"/></g>
  <text x="240" y="155" font-family="Helvetica Neue,Helvetica,Arial,sans-serif" font-size="95" font-weight="500" fill="#E8E8E8">opsly</text>
</svg>